<?xml version="1.0" standalone="no"?>
<!DOCTYPE svg PUBLIC "-//W3C//DTD SVG 20010904//EN"
 "http://www.w3.org/TR/2001/REC-SVG-20010904/DTD/svg10.dtd">
<svg version="1.0" xmlns="http://www.w3.org/2000/svg"
 width="224.000000pt" height="224.000000pt" viewBox="0 0 224.000000 224.000000"
 preserveAspectRatio="xMidYMid meet">

<g transform="translate(0.000000,224.000000) scale(0.100000,-0.100000)"
fill="#000000" stroke="none">
<path d="M750 2144 c-63 -20 -199 -83 -228 -106 -7 -6 -25 -18 -42 -27 -65
-36 -195 -159 -260 -246 -49 -65 -117 -184 -125 -218 -4 -15 -11 -27 -15 -27
-4 0 -11 -17 -15 -37 -4 -21 -13 -51 -20 -68 -19 -42 -23 -66 -35 -194 -28
-297 44 -555 218 -784 89 -117 183 -198 333 -286 48 -28 94 -51 103 -51 9 0
16 -4 16 -8 0 -5 24 -14 53 -21 28 -8 57 -17 62 -21 61 -45 504 -46 610 0 11
4 41 14 68 20 26 7 47 17 47 21 0 5 6 9 13 9 19 0 114 50 192 101 39 25 103
78 143 117 70 70 182 211 182 230 0 5 6 15 13 21 8 6 20 29 27 51 7 22 16 40
20 40 4 0 13 21 20 47 7 27 17 53 21 58 29 38 59 312 48 440 -6 76 -36 224
-49 240 -4 6 -10 23 -14 40 -10 40 -78 177 -105 208 -11 14 -14 14 -32 -4 -10
-10 -23 -19 -28 -19 -6 0 -29 25 -53 56 -58 75 -168 187 -168 171 0 -3 30 -36
68 -74 74 -75 83 -86 129 -158 18 -27 37 -55 43 -62 5 -7 10 -14 10 -17 0 -3
12 -31 26 -61 14 -31 23 -62 20 -68 -2 -7 -5 -4 -5 6 -1 9 -5 17 -10 17 -5 0
-15 17 -22 38 -6 20 -15 39 -19 42 -4 3 -15 20 -24 38 -15 29 -46 45 -46 24 0
-5 -10 -13 -23 -19 -24 -11 -35 -5 -56 36 -14 26 -27 41 -96 111 -106 108
-265 198 -425 241 -71 19 -110 23 -241 23 -118 0 -161 -3 -173 -13 -9 -8 -20
-11 -23 -7 -4 4 -1 11 7 16 11 7 11 10 2 10 -7 0 -15 -7 -18 -15 -8 -20 -34
-19 -64 4 l-25 19 28 7 c15 4 31 5 34 1 4 -3 -4 -6 -17 -6 -17 0 -21 -3 -14
-10 11 -11 44 -3 44 10 0 49 -163 -5 -314 -102 -75 -50 -135 -103 -210 -188
-62 -71 -96 -129 -170 -290 -49 -107 -71 -394 -41 -530 62 -282 197 -485 426
-642 71 -48 208 -113 274 -129 28 -6 58 -19 68 -27 36 -32 450 -25 492 8 6 4
23 10 40 14 16 4 49 16 72 27 24 11 53 24 65 29 13 6 37 19 53 30 17 11 43 27
58 35 36 20 45 28 143 123 71 69 184 217 184 242 0 5 4 11 10 15 5 3 5 -7 -1
-25 -6 -16 -14 -30 -18 -30 -4 0 -13 -12 -20 -26 -17 -39 -99 -142 -152 -194
-75 -72 -91 -84 -204 -156 -110 -69 -293 -125 -455 -139 -108 -9 -327 23 -405
59 -16 8 -42 18 -57 21 -16 4 -28 10 -28 14 0 5 -18 14 -40 21 -22 7 -40 16
-40 20 0 4 -13 13 -30 20 -16 7 -30 16 -30 21 0 4 -8 10 -17 13 -10 4 -37 23
-60 44 -23 20 -50 44 -60 53 -34 29 -114 126 -148 180 -19 30 -39 59 -44 66
-6 6 -13 24 -17 40 -4 15 -12 35 -19 43 -7 8 -18 35 -25 60 -7 25 -16 50 -20
55 -12 14 -37 197 -39 284 -2 77 27 291 40 291 4 0 10 17 14 38 16 89 127 276
222 377 147 155 351 268 553 306 121 23 434 9 475 -20 6 -4 29 -13 52 -19 40
-12 126 -50 168 -75 66 -39 101 -63 112 -76 7 -8 15 -12 18 -9 14 14 -221 158
-258 158 -7 0 -24 6 -39 14 -15 8 -53 20 -85 26 -32 6 -74 15 -93 20 -51 13
-312 15 -335 2 -11 -5 -44 -14 -74 -20 -45 -8 -51 -7 -37 3 16 12 14 14 -15
20 l-33 7 30 13 c38 18 11 17 -46 -1z m490 -173 c117 -22 220 -58 295 -105 69
-44 111 -72 134 -91 46 -39 131 -130 137 -147 3 -10 9 -18 14 -18 5 0 12 -9
15 -20 3 -11 12 -26 19 -32 17 -18 73 -140 81 -179 4 -19 11 -38 15 -44 13
-17 30 -150 30 -237 -1 -100 -22 -252 -34 -241 -4 4 -6 -12 -2 -37 4 -31 3
-39 -3 -25 -5 11 -10 16 -10 10 -1 -5 -4 -21 -7 -35 -5 -21 -4 -22 6 -10 10
13 11 12 6 -3 -3 -10 -6 -23 -6 -28 0 -5 -5 -9 -11 -9 -5 0 -7 5 -4 10 3 6 2
10 -3 10 -5 0 -12 -9 -15 -19 -3 -14 -1 -18 9 -14 15 6 -57 -129 -87 -162 -59
-66 -69 -79 -69 -86 0 -5 -4 -9 -9 -9 -5 0 -23 -12 -39 -28 -37 -34 -50 -44
-87 -68 -17 -10 -32 -21 -35 -24 -3 -3 -36 -20 -75 -39 -38 -18 -78 -37 -88
-42 -62 -32 -267 -61 -377 -54 -90 7 -97 8 -228 50 -184 58 -328 165 -449 333
-40 55 -43 65 -32 80 13 15 12 16 -3 3 -19 -14 -23 -9 -19 31 1 9 -7 36 -18
60 -73 156 -90 394 -41 573 22 79 106 265 120 265 4 0 13 12 19 28 15 35 151
167 216 210 99 65 251 126 365 145 45 8 224 6 270 -2z m817 -563 c-3 -7 -5 -2
-5 12 0 14 2 19 5 13 2 -7 2 -19 0 -25z m54 -481 c-10 -9 -11 -8 -5 6 3 10 9
15 12 12 3 -3 0 -11 -7 -18z m-40 -160 c-10 -9 -11 -8 -5 6 3 10 9 15 12 12 3
-3 0 -11 -7 -18z m-1776 -66 c-9 -8 -25 21 -25 44 0 16 3 14 15 -9 9 -16 13
-32 10 -35z m1756 12 c-12 -20 -14 -14 -5 12 4 9 9 14 11 11 3 -2 0 -13 -6
-23z m-18 -38 c-3 -9 -8 -14 -10 -11 -3 3 -2 9 2 15 9 16 15 13 8 -4z"/>
<path d="M956 1929 c-32 -5 -64 -13 -70 -17 -6 -5 -26 -12 -44 -15 -85 -16
-244 -111 -331 -197 -63 -63 -124 -148 -117 -165 3 -8 0 -14 -6 -12 -18 3 -62
-89 -93 -194 -25 -82 -28 -111 -29 -229 0 -121 3 -144 28 -225 28 -88 86 -207
129 -268 52 -72 216 -217 245 -217 5 0 12 -4 14 -8 5 -13 108 -59 183 -82 50
-16 107 -23 200 -27 129 -5 174 0 288 32 75 21 223 97 240 123 4 6 13 12 19
12 6 0 43 33 82 74 82 86 89 94 106 126 7 14 19 31 27 38 7 7 13 20 13 27 0 7
6 20 13 27 25 24 67 172 79 270 22 192 -28 418 -119 544 -13 17 -23 33 -23 36
0 21 -143 164 -201 202 -24 16 -55 37 -69 46 -14 10 -37 21 -50 25 -14 4 -29
11 -35 15 -16 12 -136 48 -199 59 -68 13 -194 12 -280 0z m300 -67 c7 -4 14
-18 15 -32 4 -22 0 -25 -23 -25 -35 1 -37 -22 -3 -31 35 -9 31 -24 -5 -24 -36
0 -40 -17 -5 -26 29 -7 34 -34 5 -34 -33 0 -71 22 -66 39 3 9 8 36 11 60 5 27
16 52 29 63 24 20 27 20 42 10z m-102 -18 c20 -8 21 -24 1 -24 -10 0 -15 -11
-16 -32 -1 -18 -2 -37 -4 -43 -1 -5 -3 -16 -3 -22 -1 -7 -9 -13 -18 -13 -12 0
-15 9 -11 46 2 30 -1 50 -10 59 -7 8 -13 18 -13 24 0 12 48 15 74 5z m-109
-24 c0 -11 -9 -14 -32 -12 -45 5 -42 -14 5 -25 32 -8 37 -13 37 -37 0 -22 -7
-31 -32 -41 -28 -12 -33 -11 -49 6 -17 18 -16 19 24 19 31 0 42 4 42 15 0 10
-10 15 -34 15 -44 0 -60 19 -46 54 9 24 15 27 47 24 26 -2 38 -8 38 -18z
m-111 -45 c4 -24 11 -47 17 -50 14 -9 11 -35 -5 -35 -14 0 -58 114 -48 124 16
17 30 1 36 -39z m415 17 c-1 -4 -1 -20 0 -37 l2 -30 18 34 c27 51 35 21 11
-46 -11 -31 -20 -59 -20 -61 0 -3 -7 1 -15 8 -8 7 -15 25 -15 40 0 40 -12 44
-26 10 -16 -36 -34 -39 -34 -5 0 14 4 25 8 25 4 0 13 20 20 45 11 41 14 45 32
35 11 -6 19 -14 19 -18z m-471 -9 c2 -8 -5 -13 -15 -13 -11 0 -28 -7 -39 -15
-18 -14 -16 -15 24 -13 71 3 86 -45 25 -79 -30 -17 -50 -16 -56 2 -5 10 4 16
28 21 51 9 46 33 -6 31 -57 -3 -73 22 -39 58 25 27 70 31 78 8z m610 -43 c12
-12 22 -27 22 -35 0 -20 -26 -19 -34 0 -8 23 -32 18 -50 -10 -22 -33 -20 -44
9 -51 27 -7 35 -34 10 -34 -9 0 -27 8 -41 17 -21 14 -25 22 -20 47 7 31 51 86
71 86 6 0 21 -9 33 -20z m-731 -12 c-2 -7 -12 -13 -23 -13 -10 0 -20 -7 -22
-15 -2 -12 6 -14 42 -12 37 3 45 1 51 -16 8 -29 -15 -62 -47 -69 -16 -3 -28
-12 -28 -20 0 -8 -8 -13 -17 -11 -25 4 -43 -10 -43 -32 0 -10 -6 -20 -14 -23
-9 -4 -21 12 -36 48 -13 30 -27 52 -31 49 -15 -9 -10 14 7 30 8 9 17 16 19 16
13 0 75 -35 75 -42 0 -4 7 -8 15 -8 8 0 15 4 15 9 0 5 10 11 22 13 14 2 24 11
25 23 2 11 0 14 -3 8 -8 -19 -84 -17 -85 2 -1 8 -2 23 -3 32 -1 19 37 43 67
43 11 0 17 -5 14 -12z m-186 -26 c-14 -26 -51 -57 -51 -43 0 9 -4 8 -14 -1
-10 -10 -11 -15 -2 -21 7 -6 4 -7 -7 -3 -13 4 -17 1 -15 -12 2 -9 -3 -16 -10
-14 -6 1 -11 -2 -10 -7 3 -9 -48 -61 -59 -61 -4 0 5 12 19 28 13 15 35 43 48
62 26 39 40 51 51 44 4 -2 18 7 30 21 28 29 33 31 20 7z m983 -11 c3 -5 -8
-26 -24 -46 -17 -21 -28 -40 -26 -42 2 -2 26 7 53 21 68 34 83 23 55 -38 -12
-25 -22 -48 -22 -52 0 -11 -28 -33 -34 -27 -3 4 -6 17 -6 29 0 18 -7 25 -27
29 -64 14 -76 34 -39 66 14 13 26 28 26 35 0 7 8 18 18 23 21 13 20 13 26 2z
m-969 -11 c-3 -5 -1 -10 6 -10 7 0 10 -3 6 -6 -9 -9 -28 6 -22 17 4 5 8 9 11
9 3 0 2 -4 -1 -10z m-19 -32 c5 -7 3 -8 -6 -3 -10 6 -12 4 -7 -8 3 -9 1 -19
-5 -23 -7 -5 -8 -2 -3 7 5 8 5 11 1 7 -4 -3 -7 -10 -7 -15 0 -4 -14 -23 -31
-40 -30 -31 -34 -59 -6 -35 7 6 18 11 23 12 6 1 9 7 7 14 -1 7 6 20 16 30 17
15 20 15 32 1 8 -10 9 -15 1 -15 -6 0 -11 5 -11 12 0 6 -6 3 -14 -7 -8 -11
-12 -24 -9 -30 5 -14 -23 -39 -35 -31 -5 3 -18 -4 -28 -17 -19 -21 -19 -21 0
-7 18 14 19 13 13 -4 -6 -14 -4 -17 8 -12 10 3 13 2 10 -5 -4 -5 -12 -8 -18
-6 -7 3 -25 -7 -42 -22 -16 -14 -23 -17 -15 -7 13 17 13 19 0 14 -8 -2 -16
-14 -18 -26 -4 -27 -19 -29 -17 -3 1 24 24 53 35 46 5 -3 15 8 23 25 9 16 11
30 6 30 -6 0 -6 7 -1 18 5 9 7 23 4 31 -3 10 0 12 12 8 10 -4 15 -3 11 3 -4 6
1 17 9 26 9 9 14 20 11 25 -4 5 0 6 8 3 8 -3 18 -1 22 5 8 14 12 14 21 -1z
m-105 -97 c-6 -10 -8 -20 -6 -23 3 -3 -4 -13 -16 -24 -11 -10 -38 -37 -59 -59
-22 -22 -40 -35 -40 -29 0 6 10 19 23 28 19 14 20 15 2 9 l-20 -6 20 20 c11
11 23 19 27 17 4 -3 9 0 13 6 3 5 1 10 -4 10 -6 0 6 16 26 35 42 40 48 43 34
16z m84 -59 c-3 -3 -11 0 -18 7 -9 10 -8 11 6 5 10 -3 15 -9 12 -12z m-149
-77 c-1 -14 -6 -28 -9 -32 -11 -10 -8 -25 3 -18 6 3 10 1 10 -5 0 -6 4 -9 10
-5 5 3 7 13 4 23 -5 14 -4 14 4 2 14 -18 -3 -41 -24 -33 -9 3 -12 0 -9 -9 3
-8 -16 -34 -47 -63 -28 -28 -45 -41 -37 -30 7 11 21 26 29 33 13 12 12 13 -5
8 -19 -6 -19 -5 -1 8 18 14 14 42 -5 31 -5 -4 -9 -1 -9 4 0 14 13 14 28 -1 9
-9 15 -8 26 7 9 13 11 22 4 26 -6 4 -7 13 -3 20 5 10 5 11 -3 4 -5 -5 -12 -18
-14 -27 -2 -12 -7 -15 -17 -9 -10 7 -5 18 25 49 22 22 40 41 41 41 1 1 0 -10
-1 -24z m64 -6 c0 -5 4 -8 9 -4 5 3 12 2 15 -3 3 -5 0 -9 -7 -9 -7 0 -20 -4
-29 -8 -18 -7 -26 14 -11 28 10 10 23 8 23 -4z m597 -42 c40 -21 48 -47 48
-158 0 -151 -17 -161 -290 -169 l-180 -5 -3 -42 -3 -43 240 0 241 0 0 -65 0
-65 -345 0 -345 0 0 131 c0 143 10 176 59 200 17 8 93 14 214 17 175 4 188 6
198 24 8 15 8 27 0 44 -10 23 -15 24 -119 24 -94 0 -113 -3 -135 -20 -21 -17
-40 -20 -122 -20 l-97 0 4 57 c4 47 10 60 34 79 15 13 37 25 49 28 11 2 133 3
270 2 218 -1 254 -3 282 -19z m634 -129 c1 -84 1 -161 0 -170 -2 -15 6 -18 48
-18 l51 0 0 -70 0 -70 -51 0 -51 0 2 -32 c4 -60 7 -58 -100 -58 l-100 0 0 45
0 45 -175 0 -175 0 0 64 c0 60 2 66 38 104 40 43 66 73 134 154 24 28 56 65
71 82 16 17 36 41 44 54 14 21 22 22 139 22 l124 0 1 -152z m-1291 58 c0 -2
-7 -9 -15 -16 -13 -11 -14 -10 -9 4 5 14 24 23 24 12z m400 -627 c0 -6 -9 -24
-20 -39 l-21 -29 26 -17 c28 -18 49 -9 60 27 5 15 10 17 26 9 19 -11 19 -12
-6 -44 -14 -18 -25 -38 -25 -44 0 -7 -4 -12 -10 -12 -5 0 -10 -6 -10 -12 0 -7
-9 -24 -20 -38 -28 -35 -45 -9 -23 34 15 28 14 31 -8 49 -25 20 -24 20 -55
-30 -9 -14 -15 -15 -24 -6 -14 13 -12 20 30 83 17 25 33 53 36 63 7 18 44 24
44 6z m660 -10 c0 -5 -15 -15 -34 -23 -71 -30 -56 -63 18 -39 48 16 49 16 68
-6 10 -13 18 -31 18 -41 0 -34 -67 -87 -96 -76 -18 7 -19 36 -1 36 22 0 67 24
67 37 0 21 -17 23 -70 11 -49 -11 -54 -11 -70 9 -25 31 -15 65 28 89 34 20 72
22 72 3z m-454 -90 c29 -24 6 -150 -30 -167 -48 -22 -116 10 -116 55 0 46 32
124 54 132 23 9 70 -1 92 -20z m328 -48 c31 -41 56 -78 56 -83 0 -12 -38 -10
-42 3 -3 8 -16 10 -40 5 -28 -5 -37 -12 -40 -29 -2 -12 -11 -23 -20 -25 -16
-3 -18 7 -18 97 0 96 1 100 23 103 12 2 23 4 23 3 1 0 27 -33 58 -74z m-173
39 c24 -13 25 -61 3 -95 -9 -14 -12 -25 -6 -25 5 0 12 -8 16 -17 3 -10 9 -24
12 -30 3 -8 -2 -13 -15 -13 -14 0 -25 11 -35 35 -21 49 -46 47 -46 -5 0 -33
-3 -40 -20 -40 -19 0 -20 7 -20 93 0 52 3 97 7 100 10 11 82 8 104 -3z"/>
<path d="M640 1600 c0 -5 5 -10 11 -10 5 0 7 5 4 10 -3 6 -8 10 -11 10 -2 0
-4 -4 -4 -10z"/>
<path d="M1566 1591 c-4 -7 -5 -15 -2 -18 9 -9 19 4 14 18 -4 11 -6 11 -12 0z"/>
<path d="M420 1515 c-11 -13 -10 -14 4 -9 9 3 16 10 16 15 0 13 -6 11 -20 -6z"/>
<path d="M356 1312 l-19 -27 24 22 c12 12 21 24 18 27 -2 2 -13 -8 -23 -22z"/>
<path d="M1432 1114 l-52 -64 55 0 55 0 0 65 c0 36 -1 65 -2 64 -2 0 -27 -30
-56 -65z"/>
<path d="M920 541 c0 -11 -4 -22 -9 -25 -12 -8 -20 -52 -11 -66 4 -6 19 -12
35 -13 26 -2 29 2 41 46 10 40 10 50 -3 62 -21 22 -53 19 -53 -4z"/>
<path d="M1270 505 c0 -18 5 -25 20 -25 23 0 25 8 6 33 -18 24 -26 21 -26 -8z"/>
<path d="M1082 508 c2 -17 10 -23 28 -23 18 0 26 6 28 23 3 19 -1 22 -28 22
-27 0 -31 -3 -28 -22z"/>
<path d="M828 2133 c7 -3 16 -2 19 1 4 3 -2 6 -13 5 -11 0 -14 -3 -6 -6z"/>
</g>
</svg>
